<?xml version="1.0" encoding="utf-8"?>
<!-- Generator: Adobe Illustrator 21.0.2, SVG Export Plug-In . SVG Version: 6.00 Build 0)  -->
<svg version="1.1" id="Layer_1" xmlns="http://www.w3.org/2000/svg" xmlns:xlink="http://www.w3.org/1999/xlink" x="0px" y="0px"
	 viewBox="0 0 432.7 792" style="enable-background:new 0 0 432.7 792;" xml:space="preserve">
<style type="text/css">
	.st0{fill:#F13D48;}
</style>
<g>
	<path class="st0" d="M-12.5,181.4c0-55.9,20.4-100.1,61.3-132.6S145.5,0.1,216.2,0.1h216.1v81H326.2c20.5,20.9,34.8,39.9,42.8,57
		s12,36.7,12,58.7c0,27.4-7.8,54.3-23.4,80.7s-35.6,46.7-60.2,60.7c-24.5,14.1-64.7,25.3-120.6,33.6c-39.2,5.7-58.7,19.2-58.7,40.5
		c0,12.2,7.3,22.2,22,29.9c14.6,7.8,41.1,15.9,79.6,24.2c64.2,14.1,105.6,25.1,124,33.1s35.1,19.4,49.9,34.2
		c25.1,25.1,37.6,56.6,37.6,94.7c0,49.8-22.2,89.5-66.4,119.2c-44.3,29.7-103.5,44.5-177.6,44.5c-74.9,0-134.7-14.9-179.3-44.8
		c-44.7-29.8-67-69.9-67-120c0-71.1,43.9-116.9,131.7-137.4c-35-22.4-52.5-44.7-52.5-66.7c0-16.7,7.5-31.9,22.5-45.6
		s35.3-23.8,60.7-30.2C26.1,313.2-12.5,257.8-12.5,181.4z M158,549.2c-35,0-63.6,7.4-85.8,22.2s-33.4,33.8-33.4,57
		c0,54,48.7,81,146,81c46,0,81.6-6.8,106.9-20.2c25.3-13.5,37.9-32.6,37.9-57.3c0-24.3-16-44.2-47.9-59.6
		C249.8,556.9,208.6,549.2,158,549.2z M182.5,90.2c-28.1,0-52.1,9.5-71.9,28.5s-29.7,41.8-29.7,68.4c0,27,9.7,49.3,29.1,67
		s43.9,26.5,73.6,26.5c29.3,0,53.7-9,73.3-27.1s29.4-40.6,29.4-67.6c0-27.4-9.9-50.2-29.7-68.4C236.9,99.3,212.2,90.2,182.5,90.2z"
		/>
</g>
</svg>
